
      <svg data-logo="logo" xmlns="http://www.w3.org/2000/svg" viewBox="0 0 164 43">
        <g id="logogram" transform="translate(0, 1) rotate(0) "><path d="M38.2649 13.5888C35.8604 9.42455 29.8489 9.42455 27.4444 13.5888L23.8728 19.7739H31.03C35.2779 19.7739 38.4858 22.7756 39.2957 26.4274L40.1744 24.9057C41.6055 22.4274 41.6055 19.374 40.1744 16.8957L38.2649 13.5888Z" fill="#BB6BD9"/><path fill-rule="evenodd" clip-rule="evenodd" d="M28.4724 0.889963C31.5792 0.890378 34.4498 2.54774 36.0032 5.2379C38.0337 8.75429 40.0534 12.2769 42.0839 15.7932C43.9089 18.9537 43.9089 22.8474 42.0839 26.0078C40.0605 29.512 38.0265 33.0099 36.0031 36.5141C34.4497 39.2042 31.5791 40.8616 28.4723 40.862C24.1238 40.8626 19.7777 40.8911 15.4294 40.8899C12.323 40.8891 9.45291 39.2318 7.89973 36.542C5.87247 33.0312 3.84856 29.5185 1.82134 26.0077C-0.00359693 22.8473 -0.00359574 18.9535 1.82134 15.7931C3.84774 12.2838 5.87342 8.77407 7.89983 5.26475C9.45302 2.57495 12.3231 0.917634 15.4295 0.916808C19.7779 0.916058 24.1242 0.889383 28.4724 0.889963ZM18.046 3.12095L15.4301 3.1214C13.3604 3.12195 11.4313 4.10757 10.2162 5.74708C10.0699 5.94451 9.93387 6.15142 9.80925 6.36724L7.46058 10.4347C7.4432 10.4648 7.42609 10.4949 7.40927 10.5251L7.40877 10.526C5.14508 14.5939 7.98241 19.6048 12.5944 19.7982H20.0401V19.7738H20.0432L16.4585 13.5657C14.3454 9.90643 15.3204 5.65304 18.046 3.12095ZM21.9526 23.111C22.9383 24.8181 23.9204 26.5274 24.9099 28.2323L25.5363 29.3171C27.9413 33.4819 24.9343 38.6879 20.1244 38.6866L15.43 38.6853C13.1111 38.6847 10.9687 37.4476 9.80924 35.4397L8.4864 33.1488C11.9038 34.2204 15.9014 33.0908 18.0956 29.7599L18.0963 29.7589C18.1911 29.6149 18.2825 29.4668 18.3704 29.3146L21.9526 23.111ZM20.0256 22.0085L17.3383 26.6624C17.0414 27.1766 16.7579 27.6981 16.4609 28.2123C14.0564 32.3765 8.04493 32.3765 5.64036 28.2123L3.73085 24.9054C2.29979 22.4271 2.29979 19.3737 3.73085 16.8954L4.60945 15.3739C5.01784 17.1955 6.02308 18.8542 7.45629 20.0574C8.81658 21.1995 10.5624 21.9313 12.5494 22.0028C12.6559 22.0066 12.7631 22.0085 12.871 22.0085H20.0256ZM23.8447 21.9783H31.03C35.8391 21.9784 38.8448 27.1836 36.4403 31.3479L34.0936 35.4118C32.934 37.4199 30.7912 38.6571 28.472 38.6574L25.8602 38.6578C28.5844 36.1255 29.5584 31.8733 27.4458 28.2148L23.8447 21.9783ZM21.958 18.6809L18.3679 12.4637C15.9632 8.29911 18.9695 3.09351 23.7791 3.09415L28.4721 3.09478C30.7912 3.09509 32.9341 4.33228 34.0937 6.34042L35.4308 8.65597C31.8628 7.53139 27.6588 8.80822 25.5349 12.4865L21.958 18.6809ZM27.4444 13.5888C29.8489 9.42456 35.8604 9.42456 38.2649 13.5888L40.1745 16.8957C41.6055 19.374 41.6055 22.4274 40.1745 24.9057L39.2957 26.4274C38.4858 22.7756 35.2779 19.7739 31.03 19.7739H23.8729L27.4444 13.5888Z" fill="#283841"/><path d="M25.8603 38.6579C28.5845 36.1256 29.5585 31.8734 27.4459 28.215L23.8448 21.9785L31.03 21.9785C35.8391 21.9785 38.8448 27.1838 36.4403 31.348L34.0936 35.4119C32.934 37.4201 30.7912 38.6572 28.472 38.6576L25.8603 38.6579Z" fill="#EB5757"/><path d="M8.48654 33.1491C12.052 34.267 16.2489 32.9889 18.3704 29.3148L21.9527 23.111L25.5364 29.3172C27.9413 33.482 24.9343 38.6879 20.1244 38.6867L15.43 38.6854C13.1112 38.6848 10.9687 37.4476 9.80927 35.4398L8.48654 33.1491Z" fill="#F2994A"/><path d="M4.60943 15.3739L3.73074 16.8956C2.29967 19.3739 2.29967 22.4273 3.73074 24.9056L5.64025 28.2125C8.04482 32.3767 14.0563 32.3768 16.4608 28.2125L20.0432 22.0085H12.8709C8.63038 22.0085 5.42624 19.0172 4.60943 15.3739Z" fill="#F2C94C"/><path d="M7.40755 10.5281C7.23857 10.8321 7.09805 11.1413 6.98462 11.4533C7.09837 11.1404 7.23936 10.8304 7.40896 10.5257L7.40755 10.5281Z" fill="#F2C94C"/><path d="M18.0464 3.12091C15.3205 5.65298 14.3455 9.9065 16.4586 13.5659L20.0608 19.8042H12.8709C8.06175 19.8042 5.05604 14.5989 7.46061 10.4347L9.80928 6.36725C10.9687 4.35937 13.1112 3.12222 15.43 3.12161L18.0464 3.12091Z" fill="#27AE60"/><path d="M21.958 18.6809L18.368 12.4637C15.9632 8.29911 18.9696 3.09351 23.7791 3.09415L28.4721 3.09477C30.7913 3.09508 32.9341 4.33227 34.0937 6.34042L35.4308 8.65596C31.8628 7.53139 27.6589 8.80822 25.5349 12.4864L21.958 18.6809Z" fill="#2F80ED"/></g>
        <g id="logotype" transform="translate(50, 1)"><path fill="#d80e79" d="M17.73 33L11.21 33Q10.16 33 9.48 32.32Q8.80 31.63 8.80 30.59L8.80 30.59L8.80 10.91Q8.80 9.86 9.48 9.18Q10.16 8.50 11.21 8.50L11.21 8.50L18.36 8.50Q21.30 8.50 23.48 10.04Q25.67 11.58 26.90 14.34Q28.12 17.11 28.12 20.75L28.12 20.75Q28.12 24.35 26.84 27.12Q25.57 29.88 23.24 31.44Q20.91 33 17.73 33L17.73 33ZM13.63 12.84L13.63 28.63L17.69 28.63Q19.51 28.63 20.75 27.68Q22.00 26.73 22.63 24.97Q23.26 23.20 23.26 20.75L23.26 20.75Q23.26 18.30 22.64 16.53Q22.03 14.76 20.89 13.80Q19.76 12.84 18.15 12.84L18.15 12.84L13.63 12.84ZM34.32 33.35L34.32 33.35Q33.34 33.35 32.65 32.65Q31.97 31.95 31.97 31.00L31.97 31.00L31.97 16.93Q31.97 15.99 32.65 15.31Q33.34 14.63 34.32 14.63L34.32 14.63Q35.26 14.63 35.94 15.31Q36.63 15.99 36.63 16.93L36.63 16.93L36.63 31.00Q36.63 31.95 35.94 32.65Q35.26 33.35 34.32 33.35ZM34.28 12.84L34.28 12.84Q33.20 12.84 32.50 12.14Q31.80 11.44 31.80 10.14L31.80 10.14Q31.80 8.88 32.50 8.17Q33.20 7.45 34.28 7.45L34.28 7.45Q35.44 7.45 36.14 8.17Q36.84 8.88 36.84 10.14L36.84 10.14Q36.84 11.44 36.14 12.14Q35.44 12.84 34.28 12.84ZM48.28 33.10L48.28 33.10Q45.76 33.10 44.03 31.81Q42.30 30.52 41.39 28.43Q40.48 26.35 40.48 23.93L40.48 23.93Q40.48 22.15 40.98 20.47Q41.49 18.79 42.49 17.42Q43.48 16.06 44.97 15.25Q46.46 14.45 48.42 14.45L48.42 14.45Q50.24 14.45 51.47 15.08Q52.69 15.71 53.57 16.86L53.57 16.86L53.57 16.51Q53.57 15.67 54.21 15.10Q54.86 14.52 55.84 14.52L55.84 14.52Q56.82 14.52 57.48 15.18Q58.15 15.85 58.15 16.86L58.15 16.86L58.15 31.91Q58.15 34.68 57.01 36.61Q55.88 38.53 53.85 39.53Q51.82 40.52 49.16 40.52L49.16 40.52Q48 40.52 46.81 40.31Q45.62 40.11 44.61 39.69Q43.59 39.27 42.89 38.74L42.89 38.74Q42.26 38.25 42.03 37.73Q41.81 37.20 41.91 36.57L41.91 36.57Q41.98 35.73 42.59 35.15Q43.21 34.58 44.19 34.68L44.19 34.68Q44.85 34.75 45.34 35.01Q45.83 35.27 46.32 35.57Q46.81 35.87 47.48 36.08Q48.14 36.29 49.12 36.29L49.12 36.29Q51.43 36.29 52.52 35.20Q53.60 34.12 53.57 31.98L53.57 31.98L53.57 30.66Q52.59 31.84 51.29 32.48Q50.00 33.10 48.28 33.10ZM49.37 28.94L49.37 28.94Q51.36 28.94 52.45 27.57Q53.53 26.21 53.53 23.76L53.53 23.76Q53.53 21.27 52.43 19.95Q51.33 18.61 49.37 18.61L49.37 18.61Q48.07 18.61 47.14 19.23Q46.22 19.84 45.74 20.99Q45.27 22.15 45.27 23.80L45.27 23.80Q45.27 26.35 46.36 27.64Q47.44 28.94 49.37 28.94ZM65.40 33.35L65.40 33.35Q64.42 33.35 63.73 32.65Q63.05 31.95 63.05 31.00L63.05 31.00L63.05 16.93Q63.05 15.99 63.73 15.31Q64.42 14.63 65.40 14.63L65.40 14.63Q66.34 14.63 67.02 15.31Q67.71 15.99 67.71 16.93L67.71 16.93L67.71 31.00Q67.71 31.95 67.02 32.65Q66.34 33.35 65.40 33.35ZM65.36 12.84L65.36 12.84Q64.28 12.84 63.58 12.14Q62.88 11.44 62.88 10.14L62.88 10.14Q62.88 8.88 63.58 8.17Q64.28 7.45 65.36 7.45L65.36 7.45Q66.52 7.45 67.22 8.17Q67.92 8.88 67.92 10.14L67.92 10.14Q67.92 11.44 67.22 12.14Q66.52 12.84 65.36 12.84ZM74.92 33.35L74.92 33.35Q73.94 33.35 73.27 32.67Q72.61 31.98 72.61 30.97L72.61 30.97L72.61 9.76Q72.61 8.78 73.27 8.11Q73.94 7.45 74.92 7.45L74.92 7.45Q75.93 7.45 76.60 8.11Q77.26 8.78 77.26 9.76L77.26 9.76L77.26 30.97Q77.26 31.98 76.60 32.67Q75.93 33.35 74.92 33.35ZM89.86 33.52L89.86 33.52Q87.34 33.52 85.36 32.35Q83.39 31.18 82.25 29.06Q81.11 26.95 81.11 24.07L81.11 24.07Q81.11 21.38 82.14 19.19Q83.18 17.00 85.08 15.73Q86.99 14.45 89.62 14.45L89.62 14.45Q91.58 14.45 93.13 15.18Q94.69 15.92 95.78 17.11Q96.86 18.30 97.42 19.70Q97.98 21.10 97.98 22.46L97.98 22.46Q97.98 23.80 97.33 24.56Q96.69 25.34 95.22 25.34L95.22 25.34L85.94 25.34Q86.19 26.73 86.82 27.63Q87.45 28.52 88.34 28.94Q89.23 29.36 90.32 29.36L90.32 29.36Q91.47 29.36 92.17 28.91Q92.87 28.45 93.43 27.82L93.43 27.82Q93.78 27.47 94.22 27.17Q94.66 26.88 95.36 26.88L95.36 26.88Q96.27 26.88 96.86 27.45Q97.46 28.03 97.46 29.04L97.46 29.04Q97.46 29.88 96.88 30.67Q96.30 31.46 95.27 32.11Q94.24 32.76 92.87 33.14Q91.51 33.52 89.86 33.52ZM85.94 22.11L85.94 22.11L93.33 22.11Q93.08 20.36 92.12 19.47Q91.16 18.58 89.65 18.58L89.65 18.58Q88.18 18.58 87.20 19.44Q86.22 20.29 85.94 22.11ZM108.24 33.35L108.24 33.35Q106.56 33.35 105.40 32.63Q104.25 31.91 103.67 30.73Q103.09 29.54 103.09 28.17L103.09 28.17L103.09 13.43Q103.09 12.49 103.76 11.81Q104.42 11.12 105.40 11.12L105.40 11.12Q106.35 11.12 107.03 11.81Q107.71 12.49 107.71 13.43L107.71 13.43L107.71 27.86Q107.71 28.27 107.85 28.54Q107.99 28.80 108.31 28.80L108.31 28.80Q108.62 28.80 108.88 28.61Q109.15 28.41 109.50 28.26Q109.85 28.10 110.34 28.10L110.34 28.10Q111.32 28.10 111.98 28.77Q112.65 29.43 112.65 30.45L112.65 30.45Q112.65 31.39 111.98 32.05Q111.32 32.72 110.30 33.03Q109.29 33.35 108.24 33.35ZM110.93 19.03L102.50 19.03Q101.62 19.03 101.03 18.44Q100.43 17.84 100.43 17.00L100.43 17.00Q100.43 16.16 101.03 15.57Q101.62 14.97 102.50 14.97L102.50 14.97L110.93 14.97Q111.77 14.97 112.37 15.57Q112.96 16.16 112.96 17.00L112.96 17.00Q112.96 17.84 112.37 18.44Q111.77 19.03 110.93 19.03L110.93 19.03Z"/></g>
        
      </svg>
    